<!--?xml version="1.0" encoding="utf-8"?-->
<!-- Svg Vector Icons : http://www.onlinewebfonts.com/icon -->

<svg version="1.1" xmlns="http://www.w3.org/2000/svg" xmlns:xlink="http://www.w3.org/1999/xlink" x="0px" y="0px" viewBox="0 0 256 256" enable-background="new 0 0 256 256" xml:space="preserve">
<metadata> Svg Vector Icons : http://www.onlinewebfonts.com/icon </metadata>
<g><g><g><path fill="#FDC913" data-title="Layer 0" xs="0" d="M120.5,10.1c-18.3,1.6-32.6,5.6-47.4,13.3C51.6,34.6,33.3,53.2,22.4,74.9C14,91.8,10,108.7,10,128c0,19.3,4,36.3,12.4,53c9.6,19.2,25.8,36.7,44.4,48c38.7,23.6,88.4,22.6,126.4-2.7c49.1-32.6,66.6-95.9,41.4-149.1c-5.9-12.3-13-22.3-23.2-32.6c-18.9-18.9-41-29.9-67.7-33.7C138.8,10.3,124.5,9.7,120.5,10.1z M95.2,49.3c10.6,1.8,20.9,7.3,29,15.5c10.9,10.9,16.6,24.7,16.1,39.1l-0.2,5.6l7.6,7.6c6.9,6.9,7.5,7.7,7.5,9.1c0,0.9-0.2,1.9-0.6,2.2c-0.4,0.4-0.3,0.6,0.8,0.6c1.1,0,2.6,1.2,8.5,7.2l7.2,7.2h8.5c4.7,0,10.1,0.2,11.9,0.5c11.5,1.5,18.9,13.5,15.3,25.1c-0.6,1.8-1.8,4.2-3,5.8c-3.8,5.1-8.5,7.4-16.3,7.8l-4.7,0.3l-0.3,4.4c-0.5,8.3-3,13.2-8.5,17c-4,2.7-7.1,3.6-12.2,3.2c-5.4-0.3-9.7-2.3-13.4-6.3c-4.2-4.5-4.6-6-4.8-18.9l-0.2-10.8l-6.8-6.9c-4-4-7-7.4-7.2-8.1c-0.4-1.4,0.7-3.8,1.8-4.3c2.4-0.9,3-0.5,11.5,8l8.2,8.2l0.2,11.7c0.1,10.7,0.2,11.8,1.1,13.7c1.9,3.9,6.1,6.3,11.1,6.3c2.1,0,3.6-0.3,4.9-1c5.3-2.7,6.6-5.6,6.6-14.1c0-4.8,0.1-5.9,0.9-7.1c1.4-2.4,2.4-2.7,8.5-2.7c8.3,0,11.2-1.2,13.8-5.4c1.1-1.8,1.4-2.9,1.6-5.4c0.3-5.4-1.8-9.6-6-11.7c-2.4-1.2-2.5-1.2-13.2-1.2c-8.2,0-11.1-0.1-12.3-0.6c-0.8-0.4-4.9-4.2-9.2-8.4c-8-8.1-8.5-8.9-7.3-11.2c0.4-0.8,0.2-0.9-2.5-1.2c-4-0.5-6.6,0-9.8,1.6c-7.1,3.6-11.7,11.7-10.4,18.6c0.8,4.2-0.3,5.9-3.7,5.9c-1.2,0-2.4-1.1-9-7.5l-7.5-7.5l-7.5,0c-6.5-0.1-8.1-0.2-12.1-1.3c-5.2-1.4-11.8-4.4-16.6-7.6c-4.4-2.9-10.9-9.1-14.3-13.7c-3.6-4.8-7.4-12.7-9-18.5c-1.1-4.1-1.2-5.5-1.3-12c0-8.8,0.6-11.8,3.6-18C57.3,58.7,67.5,51.1,79.3,49C83,48.4,91.1,48.5,95.2,49.3z"/><path fill="#FDC913" data-title="Layer 1" xs="1" d="M79.9,56.7c-8.9,1.7-17.2,8.2-21.2,16.6c-2.3,4.8-3,8.1-2.9,14.5c0.1,8.4,2.4,15.7,7.5,23.5c9.7,14.7,27.3,23.8,42.5,21.8c2.1-0.3,4.3-0.5,4.8-0.5s3,2.2,6,5.1l5.2,5.1l0.3-1.6c0.6-2.9,3.6-8.1,6.4-11.2c3-3.2,7.6-6.2,10.9-7.2c1.2-0.3,2.2-0.6,2.3-0.7c0.1-0.1-2-2.4-4.8-5.2l-5-5l0.4-2.9c0.7-5,0.4-12.2-0.7-16.5c-2.1-8-7.8-17.5-13.9-23.2c-6-5.6-13.7-9.9-21-11.9C91.9,56.1,84.4,55.8,79.9,56.7z"/></g></g></g>
</svg>